<svg width="158" height="31" viewBox="0 0 158 31" fill="none" xmlns="http://www.w3.org/2000/svg">
<path d="M45.987 21.8313V7.80913H57.2983C57.7924 7.80913 58.2475 7.93264 58.6635 8.17967C59.0796 8.4267 59.4111 8.75824 59.6581 9.17429C59.9052 9.57734 60.0287 10.0259 60.0287 10.52V14.3034C60.0287 14.7975 59.9052 15.2525 59.6581 15.6686C59.4111 16.0846 59.0796 16.4162 58.6635 16.6632C58.2475 16.8972 57.7924 17.0142 57.2983 17.0142L48.5613 17.0337V21.8313H45.987ZM48.7953 14.4204H57.1813C57.2463 14.4204 57.3048 14.4009 57.3569 14.3619C57.4089 14.3229 57.4349 14.2709 57.4349 14.2059V10.6175C57.4349 10.5525 57.4089 10.5005 57.3569 10.4614C57.3048 10.4094 57.2463 10.3834 57.1813 10.3834H48.7953C48.7303 10.3834 48.6718 10.4094 48.6198 10.4614C48.5808 10.5005 48.5613 10.5525 48.5613 10.6175V14.2059C48.5613 14.2709 48.5808 14.3229 48.6198 14.3619C48.6718 14.4009 48.7303 14.4204 48.7953 14.4204ZM64.0075 21.8313C63.5134 21.8313 63.0648 21.7078 62.6618 21.4608C62.2588 21.2138 61.9337 20.8887 61.6867 20.4857C61.4397 20.0826 61.3161 19.6341 61.3161 19.14V13.2113C61.3161 12.7172 61.4397 12.2687 61.6867 11.8656C61.9337 11.4626 62.2588 11.1375 62.6618 10.8905C63.0648 10.6435 63.5134 10.52 64.0075 10.52H70.1117C70.6058 10.52 71.0543 10.6435 71.4574 10.8905C71.8734 11.1375 72.1985 11.4626 72.4325 11.8656C72.6795 12.2687 72.803 12.7172 72.803 13.2113V19.14C72.803 19.6341 72.6795 20.0826 72.4325 20.4857C72.1985 20.8887 71.8799 21.2138 71.4769 21.4608C71.0738 21.7078 70.6188 21.8313 70.1117 21.8313H64.0075ZM64.105 19.2765H70.0142C70.0792 19.2765 70.1312 19.257 70.1702 19.218C70.2222 19.166 70.2482 19.1075 70.2482 19.0425V13.3088C70.2482 13.2438 70.2222 13.1918 70.1702 13.1528C70.1312 13.1008 70.0792 13.0748 70.0142 13.0748H64.105C64.04 13.0748 63.9815 13.1008 63.9295 13.1528C63.8904 13.1918 63.8709 13.2438 63.8709 13.3088V19.0425C63.8709 19.1075 63.8904 19.166 63.9295 19.218C63.9815 19.257 64.04 19.2765 64.105 19.2765ZM77.0331 21.8313C76.539 21.8313 76.0905 21.7078 75.6874 21.4608C75.2844 21.2138 74.9593 20.8887 74.7123 20.4857C74.4653 20.0826 74.3417 19.6341 74.3417 19.14V18.711H76.8965V19.0425C76.8965 19.1075 76.9161 19.166 76.9551 19.218C77.0071 19.257 77.0656 19.2765 77.1306 19.2765H83.0398C83.1048 19.2765 83.1568 19.257 83.1958 19.218C83.2478 19.166 83.2738 19.1075 83.2738 19.0425V17.6968C83.2738 17.6318 83.2478 17.5798 83.1958 17.5408C83.1568 17.4888 83.1048 17.4628 83.0398 17.4628H77.0331C76.539 17.4628 76.0905 17.3393 75.6874 17.0923C75.2844 16.8452 74.9593 16.5202 74.7123 16.1171C74.4653 15.7141 74.3417 15.2655 74.3417 14.7715V13.2113C74.3417 12.7172 74.4653 12.2687 74.7123 11.8656C74.9593 11.4626 75.2844 11.1375 75.6874 10.8905C76.0905 10.6435 76.539 10.52 77.0331 10.52H83.1373C83.6444 10.52 84.0994 10.6435 84.5025 10.8905C84.9055 11.1375 85.2306 11.4626 85.4776 11.8656C85.7246 12.2687 85.8481 12.7172 85.8481 13.2113V13.6403H83.2738V13.3088C83.2738 13.2438 83.2478 13.1918 83.1958 13.1528C83.1568 13.1008 83.1048 13.0748 83.0398 13.0748H77.1306C77.0656 13.0748 77.0071 13.1008 76.9551 13.1528C76.9161 13.1918 76.8965 13.2438 76.8965 13.3088V14.6545C76.8965 14.7195 76.9161 14.778 76.9551 14.83C77.0071 14.869 77.0656 14.8885 77.1306 14.8885H83.1373C83.6444 14.8885 84.0994 15.012 84.5025 15.259C84.9055 15.5061 85.2306 15.8311 85.4776 16.2341C85.7246 16.6372 85.8481 17.0858 85.8481 17.5798V19.14C85.8481 19.6341 85.7246 20.0826 85.4776 20.4857C85.2306 20.8887 84.9055 21.2138 84.5025 21.4608C84.0994 21.7078 83.6444 21.8313 83.1373 21.8313H77.0331ZM90.5004 21.8313C90.0063 21.8313 89.5578 21.7078 89.1547 21.4608C88.7517 21.2138 88.4266 20.8887 88.1796 20.4857C87.9326 20.0826 87.809 19.6341 87.809 19.14V7.04853H90.3638V10.52H94.7714V13.0748H90.3638V19.0425C90.3638 19.1075 90.3834 19.166 90.4224 19.218C90.4744 19.257 90.5329 19.2765 90.5979 19.2765H94.7714V21.8313H90.5004ZM96.4189 21.8313V7.80913H107.73C108.224 7.80913 108.679 7.93264 109.095 8.17967C109.511 8.4267 109.843 8.75824 110.09 9.17429C110.337 9.57734 110.461 10.0259 110.461 10.52V14.3034C110.461 14.7975 110.337 15.2525 110.09 15.6686C109.843 16.0846 109.511 16.4162 109.095 16.6632C108.679 16.8972 108.224 17.0142 107.73 17.0142L98.9932 17.0337V21.8313H96.4189ZM99.2272 14.4204H107.613C107.678 14.4204 107.737 14.4009 107.789 14.3619C107.841 14.3229 107.867 14.2709 107.867 14.2059V10.6175C107.867 10.5525 107.841 10.5005 107.789 10.4614C107.737 10.4094 107.678 10.3834 107.613 10.3834H99.2272C99.1622 10.3834 99.1037 10.4094 99.0517 10.4614C99.0127 10.5005 98.9932 10.5525 98.9932 10.6175V14.2059C98.9932 14.2709 99.0127 14.3229 99.0517 14.3619C99.1037 14.4009 99.1622 14.4204 99.2272 14.4204ZM114.478 21.8313C113.984 21.8313 113.529 21.7078 113.113 21.4608C112.71 21.2138 112.385 20.8887 112.138 20.4857C111.904 20.0826 111.787 19.6341 111.787 19.14V10.52H114.342V19.0425C114.342 19.1075 114.361 19.166 114.4 19.218C114.452 19.257 114.511 19.2765 114.576 19.2765H120.485C120.55 19.2765 120.602 19.257 120.641 19.218C120.693 19.166 120.719 19.1075 120.719 19.0425V10.52H123.274V19.14C123.274 19.6341 123.15 20.0826 122.903 20.4857C122.669 20.8887 122.351 21.2138 121.948 21.4608C121.545 21.7078 121.09 21.8313 120.583 21.8313H114.478ZM128.019 21.8313C127.525 21.8313 127.076 21.7078 126.673 21.4608C126.27 21.2138 125.945 20.8887 125.698 20.4857C125.451 20.0826 125.328 19.6341 125.328 19.14V6.795H127.902V19.0425C127.902 19.1075 127.922 19.166 127.961 19.218C128.013 19.257 128.071 19.2765 128.136 19.2765H130.301V21.8313H128.019ZM134.302 21.8313C133.808 21.8313 133.36 21.7078 132.957 21.4608C132.554 21.2138 132.228 20.8887 131.981 20.4857C131.734 20.0826 131.611 19.6341 131.611 19.14V18.711H134.166V19.0425C134.166 19.1075 134.185 19.166 134.224 19.218C134.276 19.257 134.335 19.2765 134.4 19.2765H140.309C140.374 19.2765 140.426 19.257 140.465 19.218C140.517 19.166 140.543 19.1075 140.543 19.0425V17.6968C140.543 17.6318 140.517 17.5798 140.465 17.5408C140.426 17.4888 140.374 17.4628 140.309 17.4628H134.302C133.808 17.4628 133.36 17.3393 132.957 17.0923C132.554 16.8452 132.228 16.5202 131.981 16.1171C131.734 15.7141 131.611 15.2655 131.611 14.7715V13.2113C131.611 12.7172 131.734 12.2687 131.981 11.8656C132.228 11.4626 132.554 11.1375 132.957 10.8905C133.36 10.6435 133.808 10.52 134.302 10.52H140.406C140.914 10.52 141.369 10.6435 141.772 10.8905C142.175 11.1375 142.5 11.4626 142.747 11.8656C142.994 12.2687 143.117 12.7172 143.117 13.2113V13.6403H140.543V13.3088C140.543 13.2438 140.517 13.1918 140.465 13.1528C140.426 13.1008 140.374 13.0748 140.309 13.0748H134.4C134.335 13.0748 134.276 13.1008 134.224 13.1528C134.185 13.1918 134.166 13.2438 134.166 13.3088V14.6545C134.166 14.7195 134.185 14.778 134.224 14.83C134.276 14.869 134.335 14.8885 134.4 14.8885H140.406C140.914 14.8885 141.369 15.012 141.772 15.259C142.175 15.5061 142.5 15.8311 142.747 16.2341C142.994 16.6372 143.117 17.0858 143.117 17.5798V19.14C143.117 19.6341 142.994 20.0826 142.747 20.4857C142.5 20.8887 142.175 21.2138 141.772 21.4608C141.369 21.7078 140.914 21.8313 140.406 21.8313H134.302ZM147.369 21.8313C146.875 21.8313 146.426 21.7078 146.023 21.4608C145.62 21.2138 145.295 20.8887 145.048 20.4857C144.801 20.0826 144.677 19.6341 144.677 19.14V13.2113C144.677 12.7172 144.801 12.2687 145.048 11.8656C145.295 11.4626 145.62 11.1375 146.023 10.8905C146.426 10.6435 146.875 10.52 147.369 10.52H153.473C153.967 10.52 154.416 10.6435 154.819 10.8905C155.235 11.1375 155.56 11.4626 155.794 11.8656C156.041 12.2687 156.164 12.7172 156.164 13.2113V17.4628H147.232V19.0425C147.232 19.1075 147.252 19.166 147.291 19.218C147.343 19.257 147.401 19.2765 147.466 19.2765H156.164V21.8313H147.369ZM147.232 15.1615H153.609V13.3088C153.609 13.2438 153.583 13.1918 153.531 13.1528C153.492 13.1008 153.44 13.0748 153.375 13.0748H147.466C147.401 13.0748 147.343 13.1008 147.291 13.1528C147.252 13.1918 147.232 13.2438 147.232 13.3088V15.1615Z" fill="white"/>
<path d="M26.5088 0C28.5431 0.000162927 30.1922 1.64928 30.1924 3.68359V26.6523C30.1924 28.6868 28.5432 30.3358 26.5088 30.3359H3.68359C1.64918 30.3358 3.77721e-06 28.6868 0 26.6523V3.68359C0.000135709 1.64926 1.64926 0.000135702 3.68359 0H26.5088ZM10.0391 21.7344C9.01133 21.7344 8.17773 22.568 8.17773 23.5957V24.0596C8.17797 25.0871 9.01147 25.9199 10.0391 25.9199H20.1523C21.1799 25.9199 22.0125 25.0871 22.0127 24.0596V23.5957C22.0127 22.568 21.1801 21.7344 20.1523 21.7344H10.0391ZM5.72168 4.68457C4.69393 4.68457 3.86035 5.51815 3.86035 6.5459V11.0801C3.86036 11.1215 3.86355 11.1624 3.86621 11.2031C3.86264 11.2502 3.85938 11.2977 3.85938 11.3457V15.4961C3.85944 16.5238 4.69299 17.3564 5.7207 17.3564H6.43164C7.45935 17.3564 8.2929 16.5238 8.29297 15.4961V12.9404H12.3184C13.346 12.9404 14.1796 12.1077 14.1797 11.0801V6.5459C14.1797 5.51815 13.3461 4.68458 12.3184 4.68457H5.72168ZM17.8359 4.68457C16.8083 4.68472 15.9756 5.51823 15.9756 6.5459V11.0801C15.9756 11.1248 15.9783 11.169 15.9814 11.2129C15.9783 11.2568 15.9756 11.301 15.9756 11.3457V15.4961C15.9757 16.5236 16.8084 17.3562 17.8359 17.3564H18.5479C19.5756 17.3564 20.4091 16.5238 20.4092 15.4961V12.9404H24.4336C25.4611 12.9403 26.2939 12.1076 26.2939 11.0801V6.5459C26.2939 5.51825 25.4612 4.68474 24.4336 4.68457H17.8359Z" fill="#744DFF"/>
</svg>
