<svg width="790" height="790" viewBox="0 0 790 790" fill="none" xmlns="http://www.w3.org/2000/svg">
  <path
    d="M693 0C746.572 0 790 43.4284 790 97V693C790 746.572 746.572 790 693 790H97C43.4284 790 0 746.572 0 693V97C0 43.4284 43.4284 0 97 0H693ZM263 566C235.938 566 214 587.938 214 615V626C214 653.062 235.938 675 263 675H527C554.062 675 576 653.062 576 626V615C576 587.938 554.062 566 527 566H263ZM150 122C122.938 122 101 143.938 101 171V288C101 289.347 101.055 290.681 101.161 292C101.055 293.319 101 294.653 101 296V403C101 430.062 122.938 452 150 452H168C195.062 452 217 430.062 217 403V337H322C349.062 337 371 315.062 371 288V171C371 143.938 349.062 122 322 122H150ZM467 122C439.938 122 418 143.938 418 171V288C418 289.347 418.055 290.681 418.161 292C418.055 293.319 418 294.653 418 296V403C418 430.062 439.938 452 467 452H485C512.062 452 534 430.062 534 403V337H639C666.062 337 688 315.062 688 288V171C688 143.938 666.062 122 639 122H467Z"
    fill="#F5F5F5" />
</svg>